<?xml version="1.0" encoding="utf-8"?>
<!-- Generator: Adobe Illustrator 15.1.0, SVG Export Plug-In . SVG Version: 6.00 Build 0)  -->
<!DOCTYPE svg PUBLIC "-//W3C//DTD SVG 1.1//EN" "http://www.w3.org/Graphics/SVG/1.1/DTD/svg11.dtd">
<svg version="1.1" xmlns="http://www.w3.org/2000/svg" width="199.373px" height="47.344px" viewBox="0 0 199.373 47.344">
<path d="M53.978,7.304h2.993l13.102,28.542L82.888,7.304h3.33l-16.145,34.63
	L53.978,7.304L53.978,7.304z"/>
<path d="M120.562,38.689
	c2.119,0,4.067-0.388,5.845-1.164c1.776-0.776,3.31-1.837,4.597-3.183s2.29-2.92,3.008-4.725c0.717-1.805,1.076-3.736,1.076-5.794
	c-0.016-5.834-2.936-11.25-8.754-13.87c-3.63-1.604-8.076-1.611-11.713-0.024c-3.6,1.612-6.135,4.248-7.605,7.909
	c-1.461,3.678-1.454,8.036,0.024,11.707c1.487,3.676,4.038,6.328,7.653,7.957C116.485,38.293,118.442,38.689,120.562,38.689z M120.464,40.921
	c-2.608,0-4.965-0.468-7.067-1.401c-4.052-1.799-7.242-5.061-8.876-9.19c-1.646-4.155-1.639-8.984,0.023-13.133
	c1.736-4.277,4.712-7.365,8.926-9.262c2.12-0.934,4.484-1.401,7.092-1.401c4.884,0.002,9.041,1.72,12.471,5.153
	c4.655,4.868,5.938,12.362,3.449,18.571c-1.736,4.288-4.721,7.375-8.951,9.262C125.307,40.493,122.884,40.921,120.464,40.921
	C117.855,40.921,120.464,40.921,120.464,40.921z"/>
<path d="M31.015,29.211l-8.191-17.86l-8.178,17.86H31.015L31.015,29.211z
	 M39.62,40.557h-3.519l-4.154-9.151H13.713l-4.442,9.151H6.084l16.74-34.945L39.62,40.557L39.62,40.557z"/>
<path d="M161.86,5.493l27.6,29.767V7.018h2.336v34.587L164.194,12.28v28.277h-2.334
	V5.493L161.86,5.493z"/>
</svg>
