<svg width="122" height="50" fill="none" xmlns="http://www.w3.org/2000/svg"><path d="M109.31 1.265c-.886-.853-1.967-1.264-3.285-1.264a4.796 4.796 0 0 0-1.774.311 4.584 4.584 0 0 0-1.507.936 4.29 4.29 0 0 0-1.003 1.415 4.069 4.069 0 0 0-.341 1.67 3.895 3.895 0 0 0 .319 1.653 4.1 4.1 0 0 0 .995 1.395c.872.82 1.982 1.238 3.296 1.238 1.314 0 2.415-.406 3.315-1.241a4.222 4.222 0 0 0 1.324-3.06 4.227 4.227 0 0 0-1.339-3.053ZM20.633.04C15.93.04 12.07 1.522 8.845 4.567 5.688 7.54 4.088 11.236 4.088 15.559c0 4.288 1.586 7.958 4.712 10.905 3.127 2.947 7.087 4.441 11.79 4.441 4.704 0 8.663-1.494 11.834-4.443 3.2-3.015 4.754-6.595 4.754-10.943 0-4.349-1.57-7.944-4.798-10.945C29.195 1.52 25.357.04 20.633.04Zm6.972 22.16c-1.875 1.768-4.22 2.664-6.97 2.664-2.719 0-5.048-.896-6.923-2.663-1.876-1.81-2.827-4.063-2.827-6.692 0-2.657.95-4.923 2.824-6.731 1.873-1.81 4.191-2.708 6.927-2.708 2.707 0 5.02.911 6.884 2.708 1.855 1.749 2.821 4.012 2.867 6.726.043 2.617-.896 4.871-2.782 6.697Zm30.863 5.732c2.5 2.024 5.525 3.01 9.247 3.01 3.765 0 6.791-.984 9.243-3.009 2.452-2.024 3.65-4.961 3.65-8.976V1.484h-6.706V18.66c0 3.896-2.313 6.214-6.187 6.214-3.962 0-6.234-2.265-6.234-6.214V1.484h-6.706v17.472c0 4.027 1.208 6.957 3.693 8.976Zm50.908-18.076h-6.705v20.963h6.705V9.856Zm-63.425 17.62a1.96 1.96 0 0 0-.667-.424 2.055 2.055 0 0 0-.791-.133 2.128 2.128 0 0 0-.786.138c-.25.094-.476.235-.667.414a1.902 1.902 0 0 0-.445.625 1.81 1.81 0 0 0-.153.739c-.007.251.041.5.142.733.1.233.25.443.441.618.397.353.921.55 1.466.55.545 0 1.07-.197 1.466-.55a1.87 1.87 0 0 0 .59-1.356c0-.507-.211-.995-.59-1.356l-.006.002Zm46.396 0a1.959 1.959 0 0 0-.666-.424 2.051 2.051 0 0 0-.79-.133 2.13 2.13 0 0 0-.787.137 2.04 2.04 0 0 0-.667.414 1.9 1.9 0 0 0-.446.626 1.81 1.81 0 0 0-.153.739c-.006.251.043.501.145.734.102.233.253.443.445.617.397.353.921.55 1.466.55.546 0 1.07-.197 1.466-.55.38-.36.592-.848.592-1.356 0-.508-.212-.995-.591-1.356l-.014.002ZM0 46.708c0-1.543 1.24-2.783 2.868-2.783 1.629 0 2.878 1.24 2.878 2.783s-1.25 2.791-2.878 2.791C1.24 49.5 0 48.258 0 46.708Zm4.901-.008c0-1.146-.792-2.088-2.033-2.088-1.24 0-2.024.938-2.024 2.087 0 1.122.793 2.088 2.024 2.088 1.232 0 2.033-.966 2.033-2.087Zm2.149-2.64h1.797c1.435 0 1.958.803 1.958 1.558 0 .677-.33 1.225-1.033 1.48l1.316 2.266h-.912l-1.206-2.17H7.84v2.17h-.79V44.06Zm1.865 2.49c.709 0 1.063-.358 1.063-.908 0-.58-.404-.923-1.079-.923H7.835v1.83h1.08Zm3.369-2.49h.81v5.304h-.81V44.06Zm5.224 2.607h1.973v2.115c-.422.36-1.097.709-2.214.709-1.755 0-2.86-1.184-2.86-2.768 0-1.55 1.147-2.783 2.826-2.783.428-.013.852.075 1.234.257s.709.451.95.784l-.572.462a1.84 1.84 0 0 0-.684-.608 1.972 1.972 0 0 0-.91-.22c-1.24 0-2 .955-2 2.108 0 1.225.86 2.087 2.041 2.087.65 0 1.088-.139 1.417-.39v-1.08h-1.197l-.005-.673Zm3.459-2.607h.81v5.304h-.81V44.06Zm2.345 0h.818l3.07 4.142V44.06h.794v5.304h-.81l-3.079-4.15v4.15h-.793V44.06Zm7.863 0H32l2.203 5.304h-.904l-.581-1.479h-2.31l-.582 1.48h-.852l2.201-5.305Zm1.3 3.18-.918-2.329-.92 2.33h1.837Zm2.715-3.18h.811v4.628h2.928v.676H35.19V44.06Zm6.616 0h.81v3.101c0 .962.32 1.614 1.434 1.614 1.113 0 1.426-.652 1.426-1.614V44.06h.809v3.281c0 1.21-.709 2.155-2.235 2.155-1.527 0-2.244-.946-2.244-2.155V44.06Zm5.973 0h.82l3.07 4.142V44.06h.793v5.304h-.81l-3.08-4.15v4.15h-.793V44.06Zm6.218 0h.81v5.304h-.81V44.06Zm6.336 5.129c-.417.203-.88.31-1.35.31-1.624 0-2.876-1.233-2.876-2.783 0-1.55 1.248-2.791 2.875-2.791s2.878 1.24 2.878 2.791c.005.4-.082.795-.254 1.16a2.79 2.79 0 0 1-.741.955l.674.771-.497.398-.709-.811Zm-1.19-1.392.507-.398.717.844c.21-.205.374-.447.484-.712.11-.264.163-.547.157-.831 0-1.137-.793-2.088-2.026-2.088-1.232 0-2.024.947-2.024 2.087 0 1.142.793 2.088 2.024 2.088.298.004.592-.056.861-.174l-.7-.816Zm3.984-3.737h.809v3.101c0 .962.321 1.614 1.435 1.614 1.113 0 1.426-.652 1.426-1.614V44.06h.809v3.281c0 1.21-.709 2.155-2.235 2.155-1.527 0-2.244-.946-2.244-2.155V44.06Zm5.973 0h3.543v.676H69.91v1.542h2.058v.684H69.91v1.717h2.935v.685H69.1V44.06Zm6.792 0h.81v5.304h-.81V44.06Zm2.344 0h.82l3.07 4.142V44.06h.793v5.304h-.81l-3.08-4.15v4.15h-.793V44.06Zm6.219 0h1.88c1.781 0 3.055.82 3.055 2.663 0 1.79-1.274 2.644-3.062 2.644h-1.873V44.06Zm1.856 4.62c1.41 0 2.227-.66 2.227-1.94 0-1.28-.759-1.997-2.253-1.997h-1.02v3.936h1.046Zm4.429-4.62h.811v5.304h-.81V44.06Zm1.788 0h.904l1.712 4.358 1.713-4.358h.852l-2.176 5.304h-.827l-2.178-5.304Zm6.16 0h.81v5.304h-.81V44.06Zm2.345 0h1.881c1.781 0 3.055.82 3.055 2.663 0 1.79-1.274 2.644-3.062 2.644h-1.874V44.06Zm1.856 4.62c1.41 0 2.228-.66 2.228-1.94 0-1.28-.76-1.997-2.253-1.997h-1.02v3.936h1.045Zm4.388-4.62h.81v3.101c0 .962.321 1.614 1.434 1.614s1.426-.652 1.426-1.614V44.06h.811v3.281c0 1.21-.709 2.155-2.237 2.155s-2.244-.946-2.244-2.155V44.06Zm5.973 0h3.543v.676h-2.733v1.542h2.058v.684h-2.058v1.717h2.937v.685h-3.747V44.06Zm5.012 0h.81v4.628H122v.676h-3.738V44.06Z" fill="#971B2F"/></svg>