<svg xmlns="http://www.w3.org/2000/svg" viewBox="0 0 902.14 247.96"><path d="m98.96 114.73-11.87-10c-8.82 6.36-20.39 10-33 10-31.1.43-54.54-22.57-54.11-53.39-.43-30.81 23-53.81 54.11-53.38 31.1-.43 54.54 22.57 54.11 53.38 0 11.72-2.9 22-8.83 30.82l11.14 9.4zM48.61 72.05l12-12.73 19.24 16.2a35.84 35.84 0 0 0 2.6-14.18c0-18.66-11.13-30.81-28.35-30.81S25.75 42.68 25.75 61.34c0 18.38 11.43 30.82 28.36 30.82a28.27 28.27 0 0 0 14.18-3.47zm67.47-36.75h25v39.06c0 11.72 5.21 17.36 16.78 17.36 10.85 0 18.08-6.94 18.08-17.36V35.3h25v76.68h-24.19v-7.38h-.29q-9.17 9.51-25.23 9.51c-21.55 0-35.15-13.17-35.15-34.43zm134.09-2.74c25 0 43.11 17.93 43.11 41.23v7.37h-61.77c.72 8.68 8.1 13.89 20.25 13.89 8 0 15.62-3.61 23.15-10.7l13.89 15.91c-10.57 9.84-22.28 14.47-37.91 14.47-26.76 0-44.12-16.21-44.12-40.94-.44-23.01 18.98-41.68 43.4-41.23zm18.81 32.11c-1-8.24-8-13.16-18.52-13.16-10.27 0-17.8 5.2-18.81 13.16zm30.4-29.37h23v7.09h.29c5.21-5.93 13.6-9.26 23.29-9.26s19 3.91 24.31 10.42h.29c6.51-6.8 15.91-10.42 25.89-10.42 20.55 0 35.88 13.75 35.88 32.7v46.15h-24.3V69.59c0-9.26-5.93-15.19-15.19-15.19s-15.48 5.93-15.48 15.19v42.39h-23V69.59c0-9.26-5.93-15.19-15.19-15.19s-15.47 5.93-15.47 15.19v42.39h-24.32zm178.66-24.59h44.27c30.81 0 51.21 17.94 51.21 50.63q0 25-13.89 37.76c-9.26 8.54-21.85 12.88-37.61 12.88h-44zm42.24 78.84c18.37 0 27.49-8.53 27.49-28.21-.02-19.23-9.41-28.23-27.49-28.23h-16.53v56.42zM580.75 0h25v23.44h-25zm0 35.3h25v76.68h-25zm138.84 46.88c2.46 8.68 10.56 13.31 22.57 13.31 10 0 15.77-1.88 15.77-5.21 0-3.91-4.63-5.64-19.68-8-27-4.05-37.9-11.14-37.9-25 0-14.75 15-24.73 37.61-24.73 20.11 0 37.76 9.69 42.1 23.14l-22.57 6.66c-2.74-6.5-10.74-10.84-20.54-10.84-8.1 0-12.73 2-12.73 5.35s3.62 4.77 20.4 7.38c26.76 4.48 37.61 11.43 37.61 25.46 0 15.48-15.62 25-41.09 25-22.56 0-39-9.27-43.15-22.5zm106.93-49.62c25 0 43.11 17.93 43.11 41.23v7.37h-61.77c.72 8.68 8.1 13.89 20.25 13.89 8 0 15.63-3.61 23.15-10.7l13.89 15.91c-10.56 9.84-22.28 14.47-37.9 14.47-26.77 0-44.13-16.21-44.13-40.94-.43-23.01 18.95-41.68 43.4-41.23zm18.81 32.11c-1-8.24-8-13.16-18.52-13.16-10.27 0-17.79 5.2-18.81 13.16zm30.91 58.3c6.8-1.59 8.83-4.19 8.83-11h-9.7v-24.6h26.77v21c0 16.06-9 25.61-25.9 26.91zM5.75 143.95h57.43c18.23 0 31.25 11.29 31.25 27.34a22 22 0 0 1-10.27 19v.29c8.68 4.19 13.89 12.87 13.89 23.29 0 21-13 31.39-39.78 31.39H5.75zm52.8 39.21c6.8 0 10.28-2.9 10.28-8.83 0-5.64-3.48-8.68-10.28-8.68H31.11v17.51zm2.32 40.36c8.1 0 11.72-3.47 11.72-10.56 0-6.51-4-10.13-11.72-10.13h-29.8v20.69zm83.88-57.72c25 0 43.11 17.94 43.11 41.23v7.38h-61.77c.72 8.67 8.1 13.88 20.26 13.88 8 0 15.62-3.61 23.14-10.7l13.89 15.91c-10.56 9.84-22.28 14.47-37.9 14.47-26.77 0-44.13-16.2-44.13-40.94-.43-23 18.96-41.67 43.4-41.23zm18.81 32.11c-1-8.24-8-13.16-18.52-13.16-10.27 0-17.79 5.21-18.8 13.16zm30.41-29.37h23.58v7.38h.29c5.35-5.93 12.73-9 22.42-9A49.24 49.24 0 0 1 254 168.8l-4.34 22.31a49.64 49.64 0 0 0-11.57-1.44c-12.3 0-19.1 7.52-19.1 22.13v33.42h-25zm100-2.74c25 0 43.11 17.94 43.11 41.23v7.38h-61.77c.72 8.67 8.1 13.88 20.25 13.88 8 0 15.63-3.61 23.15-10.7l13.89 15.91c-10.56 9.84-22.28 14.47-37.9 14.47-26.77 0-44.13-16.2-44.13-40.94-.43-23 18.95-41.67 43.4-41.23zm18.78 32.11c-1-8.24-8-13.16-18.52-13.16-10.27 0-17.79 5.21-18.81 13.16zm30.44-29.37h24.15v7.09h.29c6.51-5.93 15.77-9.26 25.75-9.26 22.43 0 37.33 14.76 37.33 36.46v42.39h-25v-39.64c0-11.14-6.51-17.36-18.23-17.36-11.57 0-19.24 6.94-19.24 17.36v39.64h-25zm96.63-35.29h25v23.43h-25zm0 35.29h25v76.68h-25zm74.51-2.74c20 0 36.75 11.28 41.09 27.48l-23.29 7.09c-2.32-7.95-8.68-12.73-17.8-12.73-11 0-18.66 7.67-18.66 19.24s7.67 19.23 18.66 19.23c9.12 0 15.34-4.63 17.8-12.73l23.29 7.09c-4.34 16.2-21.12 27.49-41.09 27.49-24.74 0-43.69-17.65-43.69-41.09s18.95-41.07 43.69-41.07zm85.27 0c25 0 43.11 17.94 43.11 41.23v7.38h-61.78c.73 8.67 8.1 13.88 20.26 13.88 7.95 0 15.62-3.61 23.14-10.7l13.89 15.91c-10.56 9.84-22.28 14.47-37.9 14.47-26.76 0-44.13-16.2-44.13-40.94-.44-23 18.96-41.67 43.41-41.23zm18.8 32.11c-1-8.24-7.95-13.16-18.51-13.16-10.28 0-17.8 5.21-18.81 13.16zm51.41 6.08c0-8.25 4.49-13.74 15.92-18.81 12.58-5.64 15.91-8.24 15.91-12.73 0-5.78-6.08-9.55-15.19-9.55-11.57 0-19.39 7.09-20.11 18.52l-25-2c1.16-23 18.67-38.2 45.14-38.2 23.44 0 40.94 13.31 40.94 31.11 0 12.29-8.24 20.54-22.86 26.33-9.4 3.9-11.71 6.07-11.71 10.56v2.75h-23zm-1.88 15.62h27.35v25.61h-27.35zM633.27 82.18c2.46 8.68 10.56 13.31 22.56 13.31 10 0 15.77-1.88 15.77-5.21 0-3.91-4.63-5.64-19.67-8-27.06-4.05-37.9-11.14-37.9-25 0-14.75 15-24.73 37.61-24.73 20.11 0 37.76 9.69 42.1 23.14l-22.57 6.66c-2.75-6.51-10.71-10.85-20.54-10.85-8.1 0-12.73 2-12.73 5.35s3.61 4.77 20.39 7.38c26.77 4.48 37.62 11.43 37.62 25.46 0 15.48-15.63 25-41.09 25-22.57 0-38.21-7.52-43.16-22.5z"/></svg>